<svg width="1964" height="987" viewBox="0 0 1964 987" fill="none" xmlns="http://www.w3.org/2000/svg">
<path fill-rule="evenodd" clip-rule="evenodd" d="M211.679 607.9C736.679 834.9 752.679 883.9 868.179 798.9C874.679 790.733 889.779 768.999 898.179 747.399C906.579 725.799 901.679 694.066 898.179 680.899C898.179 680.899 767.345 411.899 740.679 378.899C714.012 345.899 633.679 279.099 525.679 275.899C505.179 277.733 478.179 276.899 447.179 286.899C416.179 296.899 284.512 358.066 211.679 390.899C187.845 405.233 141.879 447.999 148.679 504.399C157.179 574.899 207.109 605.923 211.679 607.9ZM802.679 740.899C770.179 774.899 766.179 751.899 247.179 529.899C240.679 527.399 229.579 515.999 237.179 490.399C246.679 458.399 320.466 435.975 378.679 410.899C438.353 385.194 488.679 353.399 537.679 361.899C586.679 370.399 631.186 401.097 678.679 443.399C762.999 518.504 804.379 676.399 811.179 700.399C817.979 724.399 808.346 737.399 802.679 740.899Z" fill="#3F7DE4" stroke="black"/>
<path d="M547.679 242.399C557.845 239.066 588.079 237.099 627.679 255.899L675.679 279.399L777.179 236.899C785.345 235.899 802.779 235.599 807.179 242.399C812.679 250.899 829.679 259.399 821.179 285.399C814.379 306.199 792.679 351.399 782.679 371.399C782.679 371.399 803.178 397.536 812.679 416.399C821.211 433.341 829.679 461.899 829.679 461.899L908.179 309.899C912.179 289.733 914.779 241.599 893.179 210.399C866.179 171.399 799.179 139.899 758.179 151.399C725.379 160.599 604.179 215.899 547.679 242.399Z" fill="#FF0101" stroke="black"/>
<path fill-rule="evenodd" clip-rule="evenodd" d="M1752.21 379.134C1227.21 152.134 1211.21 103.134 1095.71 188.134C1089.21 196.301 1074.11 218.034 1065.71 239.634C1057.31 261.234 1062.21 292.968 1065.71 306.134C1065.71 306.134 1196.55 575.134 1223.21 608.134C1249.88 641.134 1330.21 707.934 1438.21 711.134C1458.71 709.301 1485.71 710.134 1516.71 700.134C1547.71 690.134 1679.38 628.968 1752.21 596.134C1776.05 581.801 1822.01 539.034 1815.21 482.634C1806.71 412.134 1756.78 381.111 1752.21 379.134ZM1161.21 246.134C1193.71 212.134 1197.71 235.134 1716.71 457.134C1723.21 459.634 1734.31 471.034 1726.71 496.634C1717.21 528.634 1643.42 551.059 1585.21 576.134C1525.54 601.839 1475.21 633.634 1426.21 625.134C1377.21 616.634 1332.7 585.937 1285.21 543.634C1200.89 468.529 1159.51 310.634 1152.71 286.634C1145.91 262.634 1155.55 249.634 1161.21 246.134Z" fill="#339D4F" stroke="black"/>
<path d="M1416.21 744.634C1406.05 747.968 1375.81 749.934 1336.21 731.134L1288.21 707.634L1186.71 750.134C1178.55 751.134 1161.11 751.434 1156.71 744.634C1151.21 736.134 1134.21 727.634 1142.71 701.634C1149.51 680.834 1171.21 635.634 1181.21 615.634C1181.21 615.634 1160.71 589.498 1151.21 570.634C1142.68 553.693 1134.21 525.134 1134.21 525.134L1055.71 677.134C1051.71 697.301 1049.11 745.434 1070.71 776.634C1097.71 815.634 1164.71 847.134 1205.71 835.634C1238.51 826.434 1359.71 771.134 1416.21 744.634Z" fill="#E7A106" stroke="black"/>
</svg>
