<svg width="764" height="766" viewBox="0 0 764 766" fill="none" xmlns="http://www.w3.org/2000/svg">
<g clip-path="url(#clip0_76_11)">
<path fill-rule="evenodd" clip-rule="evenodd" d="M257.804 65.6788C3.51091 590.679 -51.3806 606.679 43.8394 722.179C52.988 728.679 77.3346 743.779 101.532 752.179C125.729 760.579 161.278 755.679 176.027 752.179C176.027 752.179 477.371 621.345 514.338 594.679C551.306 568.012 626.138 487.679 629.723 379.679C627.669 359.179 628.602 332.179 617.4 301.179C606.198 270.179 537.677 138.512 500.896 65.6788C484.839 41.8455 436.93 -4.12121 373.749 2.67879C294.772 11.1788 260.019 61.1094 257.804 65.6788ZM108.813 656.679C70.7252 624.179 96.4906 620.179 345.183 101.179C347.983 94.6788 360.754 83.5788 389.432 91.1788C425.28 100.679 450.4 174.466 478.491 232.679C507.287 292.353 542.904 342.679 533.382 391.679C523.86 440.679 489.472 485.186 442.083 532.679C357.948 616.999 181.068 658.379 154.183 665.179C127.297 671.979 112.734 662.345 108.813 656.679Z" fill="#339D4F" stroke="black"/>
<path d="M646.225 386C649.959 396.167 646.151 452.9 625.091 492.5L609.408 523L659.258 627C660.228 635.321 658.548 652 650.706 659.321C642.868 666.639 634.053 679.5 604.927 671C581.626 664.2 527.07 636 504.666 626C504.666 626 475.947 641.499 454.815 651C435.837 659.533 391.522 680 391.522 680L577.481 758C600.072 762 653.993 764.6 688.944 743C732.634 716 767.921 649 755.038 608C744.732 575.2 675.911 442.5 646.225 386Z" fill="#E7A106" stroke="black"/>
<path fill-rule="evenodd" clip-rule="evenodd" d="M269.756 78.935C19.1427 597.803 -34.9545 613.616 58.8876 727.767C67.9039 734.191 91.8982 749.114 115.745 757.416C139.592 765.718 174.626 760.875 189.163 757.416C189.163 757.416 486.146 628.111 522.578 601.756C559.011 575.401 632.76 496.006 636.293 389.267C634.269 369.007 635.189 342.322 624.149 311.684C613.108 281.046 545.579 150.918 509.33 78.935C493.506 55.38 446.29 9.95029 384.023 16.6709C306.189 25.0716 271.939 74.419 269.756 78.935ZM122.921 663.032C85.3845 630.911 110.777 626.958 355.871 114.02C358.631 107.596 371.217 96.6259 399.48 104.137C434.808 113.526 459.566 186.452 487.25 243.984C515.629 302.961 550.731 352.699 541.347 401.127C531.963 449.555 498.072 493.542 451.369 540.48C368.451 623.815 194.131 664.712 167.634 671.432C141.138 678.153 126.785 668.632 122.921 663.032Z" fill="#3F7DE4" stroke="black"/>
<path d="M656.558 404C660.156 413.822 656.487 468.63 636.193 506.887L621.08 536.352L669.116 636.824C670.051 644.863 668.432 660.976 660.875 668.049C653.323 675.118 644.829 687.543 616.763 679.331C594.31 672.762 541.74 645.519 520.151 635.858C520.151 635.858 492.478 650.831 472.115 660.01C453.828 668.253 411.126 688.026 411.126 688.026L590.316 763.38C612.085 767.244 664.043 769.756 697.722 748.889C739.821 722.805 773.824 658.078 761.41 618.469C751.479 586.781 685.163 458.583 656.558 404Z" fill="#DB4033" stroke="black"/>
</g>
<defs>
<clipPath id="clip0_76_11">
<rect width="764" height="766" fill="white"/>
</clipPath>
</defs>
</svg>
